<svg id="svg" version="1.1" viewBox="0 0 300 108.30023916037374" width="300" height="108.30023916037374" xmlns="http://www.w3.org/2000/svg"><g xmlns="http://www.w3.org/2000/svg" fill="none" fill-rule="nonzero" stroke="none" stroke-width="1" stroke-linecap="butt" stroke-linejoin="miter" stroke-miterlimit="10" stroke-dasharray="" stroke-dashoffset="0" font-family="none" font-weight="none" font-size="none" text-anchor="none" style="mix-blend-mode: normal"><path d="M184.35864,38.19873c1.37142,0.00821 2.74284,0.01642 4.15582,0.02489c0.49427,1.18511 0.98853,2.37022 1.49778,3.59124c0.64722,1.54952 1.29443,3.09904 1.96126,4.69552c0.64209,1.53823 1.28417,3.07646 1.94571,4.6613c1.21339,2.87337 2.43528,5.72675 3.75299,8.55272c0.54123,-1.27724 0.54123,-1.27724 1.09339,-2.58028c2.67605,-6.31207 5.35804,-12.62134 8.06435,-18.9205c2.75927,0 5.51853,0 8.36142,0c1.75133,7.81657 3.47917,15.63814 5.17611,23.46671c0.30385,1.39965 0.6077,2.7993 0.92075,4.24136c0.6719,3.34861 0.6719,3.34861 0.6719,5.33942c-1.75342,0.43836 -3.07951,0.35446 -4.87749,0.22397c-0.5769,-0.04055 -1.1538,-0.08109 -1.74818,-0.12287c-0.6621,-0.05005 -0.6621,-0.05005 -1.33758,-0.1011c-1.00349,-2.78877 -1.63235,-5.55173 -2.18989,-8.46096c-0.6618,-3.43629 -1.38731,-6.84635 -2.18989,-10.25269c-2.46037,5.56916 -4.90144,11.14357 -7.25558,16.7586c-0.70767,1.55688 -0.70767,1.55688 -1.504,2.3532c-1.42934,0.11976 -1.42934,0.11976 -3.16042,0.12443c-0.57023,0.00667 -1.14046,0.01335 -1.72796,0.02022c-1.48222,-0.14464 -1.48222,-0.14464 -2.67671,-1.33913c-0.50331,-1.07287 -0.97044,-2.16284 -1.41845,-3.25996c-0.27613,-0.67031 -0.55226,-1.34063 -0.83676,-2.03125c-0.30693,-0.75038 -0.61386,-1.50076 -0.93008,-2.27388c-0.72063,-1.7341 -1.44231,-3.46776 -2.16501,-5.201c-0.50427,-1.21411 -0.50427,-1.21411 -1.01873,-2.45275c-0.56831,-1.36288 -0.56831,-1.36288 -1.19604,-2.69848c-0.14936,0.6503 -0.29871,1.30059 -0.4526,1.97059c-1.01181,4.39642 -2.02596,8.79233 -3.05621,13.18447c-0.1586,0.67801 -0.31719,1.35602 -0.48059,2.05458c-0.39039,1.504 -0.39039,1.504 -0.78855,1.90216c-1.18564,0.03972 -2.37227,0.05163 -3.55858,0.04977c-0.65235,0.00103 -1.3047,0.00205 -1.97681,0.00311c-1.63154,-0.05288 -1.63154,-0.05288 -2.42786,-0.45104c0.57754,-4.62034 1.69063,-9.09498 2.71248,-13.63707c1.17467,-5.2252 2.34311,-10.44379 3.38905,-15.69632c0.74697,-3.71223 0.74697,-3.71223 5.27099,-3.73899z" fill="#0a61a7"/><path d="M68.6675,42.20524c1.21937,1.09495 1.21937,1.09495 1.99081,1.99081c0.57895,-0.55432 0.57895,-0.55432 1.1696,-1.11983c1.95179,-1.66789 4.04424,-2.29538 6.56968,-2.66271c2.46073,0.34537 4.59019,1.40077 6.3706,3.13553c2.8494,4.78699 2.25868,9.99166 2.23966,15.4288c-0.00359,1.33139 -0.00719,2.66278 -0.01089,4.03451c-0.00462,1.01727 -0.00924,2.03455 -0.014,3.08265c-1.79459,0.35892 -3.28328,0.43886 -5.10146,0.42305c-0.53635,-0.00359 -1.07271,-0.00719 -1.62531,-0.01089c-0.40804,-0.00462 -0.81608,-0.00924 -1.23648,-0.014c-0.84481,-1.68961 -0.40898,-4.14516 -0.39816,-5.97244c-0.03006,-1.86661 -0.07152,-3.73307 -0.12443,-5.59916c-0.0231,-0.93259 -0.04619,-1.86517 -0.06999,-2.82602c0.0007,-2.34452 0.0007,-2.34452 -1.39824,-3.91786c-1.59265,-0.26544 -1.59265,-0.26544 -3.1853,0c-2.11463,2.8195 -1.41544,6.43374 -1.46822,9.85453c-0.02618,1.50076 -0.05235,3.00153 -0.07932,4.54777c-0.01488,1.15996 -0.02977,2.31992 -0.0451,3.51503c-1.45632,0.48544 -2.67094,0.45089 -4.20559,0.44793c-0.5343,0.00103 -1.0686,0.00205 -1.61909,0.00311c-1.34224,-0.05288 -1.34224,-0.05288 -2.13857,-0.45104c-0.0195,-1.03113 -0.03901,-2.06226 -0.0591,-3.12465c-0.02977,-1.34216 -0.05954,-2.68433 -0.09021,-4.06717c-0.04157,-2.00247 -0.04157,-2.00247 -0.08399,-4.0454c0.04776,-3.52226 0.04776,-3.52226 -1.35935,-6.68011c-1.55934,-0.13278 -1.55934,-0.13278 -3.1853,0c-2.10798,2.10798 -1.58801,5.1253 -1.61754,7.98036c0.00821,0.80735 0.01642,1.6147 0.02489,2.44652c0.02711,2.67564 0.00763,5.24144 -0.39816,7.8886c-1.17788,0.01071 -2.35579,0.01845 -3.53369,0.02489c-0.65594,0.00462 -1.31188,0.00924 -1.9877,0.014c-1.64553,-0.03888 -1.64553,-0.03888 -2.44186,-0.43705c0,-8.14641 0,-16.29282 0,-24.68608c2.23369,0 4.46738,0 6.76876,0c0.26279,0.65697 0.52557,1.31394 0.79633,1.99081c0.26279,-0.23815 0.52557,-0.4763 0.79633,-0.72167c3.70927,-2.70468 6.81035,-2.55542 10.75039,-0.47282z" fill="#1590ca"/><path d="M35.22184,75.25274c2.09008,-0.05356 4.18054,-0.09228 6.27106,-0.12443c1.16406,-0.0231 2.32813,-0.04619 3.52747,-0.06999c0.97108,0.06416 1.94216,0.12831 2.94267,0.19441c0.52557,0.65697 1.05115,1.31394 1.59265,1.99081c0.44089,0.38392 0.88177,0.76783 1.33602,1.16338c2.63611,2.31463 5.07353,4.81154 7.54798,7.29757c1.48819,1.49358 1.48819,1.49358 3.00644,3.01732c0.80633,0.81095 1.61265,1.62189 2.44341,2.45741c0.39418,0.39418 0.78836,0.78836 1.19449,1.19449c0,0.26279 0,0.52557 0,0.79633c0.52557,0.26279 1.05115,0.52557 1.59265,0.79633c0.39418,0.78836 0.39418,0.78836 0.79633,1.59265c2.18893,-1.76102 3.91292,-3.61783 5.77647,-5.74536c8.07246,-8.95008 8.07246,-8.95008 13.21869,-10.28224c2.9101,-0.06491 5.60611,0.04213 8.47807,0.49926c0,1.59265 0,1.59265 -5.83557,7.58376c-2.47595,2.45747 -4.9519,4.91494 -7.50288,7.44688c-2.47595,2.46158 -4.9519,4.92316 -7.50288,7.45933c-2.88861,2.86089 -2.88861,2.86089 -5.83557,5.77958c-5.66728,-2.83364 -13.19419,-12.29533 -17.41962,-16.52375c-2.90503,-2.90298 -5.81006,-5.80596 -8.80313,-8.79691c-6.82475,-6.93052 -6.82475,-6.93052 -6.82475,-7.72684z" fill="#1690ca"/><path d="M67.47302,0c3.39161,0.8479 6.12998,4.8166 8.48584,7.19181c1.87005,1.87929 1.87005,1.87929 3.77788,3.79654c2.07278,2.12413 4.0974,4.29724 6.05176,6.5308c0.73789,0.77152 1.48368,1.53563 2.23966,2.28944c0.35825,0.35928 0.71651,0.71856 1.08561,1.08873c0.97723,0.92823 1.98424,1.7648 3.04532,2.59428c0.92075,0.8461 0.92075,0.8461 1.59265,1.59265c0,0.26279 0,0.52557 0,0.79633c0.52557,0.26279 1.05115,0.52557 1.59265,0.79633c0,0.39418 0,0.78836 0,1.19449c-1.92385,0.07538 -3.84855,0.12937 -5.77336,0.1742c-1.07168,0.03233 -2.14336,0.06467 -3.24751,0.09798c-3.24512,-0.30207 -3.99737,-0.68888 -6.10931,-3.05932c-0.56817,-0.55535 -1.13635,-1.11069 -1.72174,-1.68286c-0.57331,-0.57793 -1.14661,-1.15585 -1.7373,-1.75129c-0.57639,-0.57998 -1.15277,-1.15996 -1.74663,-1.75751c-0.51582,-0.52044 -1.03164,-1.04088 -1.5631,-1.5771c-0.66308,-0.66413 -1.3267,-1.32772 -1.99081,-1.99081c-1.18254,-1.18254 -2.36509,-2.36509 -3.58346,-3.58346c-1.29392,1.43712 -2.58784,2.87424 -3.92097,4.3549c-1.73634,1.84772 -3.47269,3.69545 -5.26166,5.59916c-1.70453,1.84772 -3.40905,3.69545 -5.16523,5.59916c-6.56874,5.14474 -9.76665,5.27508 -17.90332,4.3549c2.02771,-4.05543 6.73999,-7.60342 9.87941,-10.72551c1.66962,-1.66244 3.33925,-3.32488 5.05946,-5.03769c1.37707,-1.36783 2.75413,-2.73566 4.17293,-4.14494c0.98545,-0.98545 0.98545,-0.98545 1.99081,-1.99081c3.58346,-3.58346 7.16693,-7.16693 10.75039,-10.75039z" fill="#178fc9"/><path d="M153.07798,38.22361c-0.70315,1.4063 -1.37004,2.3632 -2.36409,3.55858c-0.47964,0.57818 -0.47964,0.57818 -0.96896,1.16805c-1.44121,1.71532 -2.88925,3.42476 -4.33935,5.13257c-1.57854,1.87211 -3.12748,3.76783 -4.67063,5.66915c0.5989,1.91506 1.69314,3.13731 3.0111,4.62864c1.78882,2.0468 3.54358,4.10924 5.25077,6.2244c0.6599,0.80425 1.334,1.5969 2.0157,2.38276c0.36955,0.42806 0.73909,0.85611 1.11983,1.29714c0.34183,0.39008 0.68366,0.78015 1.03584,1.18205c0.34953,0.49889 0.34953,0.49889 0.70612,1.00785c-0.19709,0.59127 -0.19709,0.59127 -0.39816,1.19449c-1.14775,0.01803 -2.29249,0.02239 -3.44037,0.00622c-1.30578,-0.02532 -1.30578,-0.02532 -2.47608,0.0871c-1.91318,0.05529 -2.88666,-0.17267 -4.33468,-1.47445c-1.16089,-1.35685 -2.22692,-2.75582 -3.2864,-4.19315c-0.81917,-1.0385 -1.64031,-2.07543 -2.46363,-3.11065c-0.63971,-0.82044 -1.27881,-1.64136 -1.91616,-2.46363c-1.46499,1.42797 -2.81253,2.91537 -4.13094,4.47933c-0.3562,0.42087 -0.7124,0.84174 -1.0794,1.27536c-1.24127,1.45041 -1.24127,1.45041 -2.38431,3.35794c-1.5631,1.63775 -1.5631,1.63775 -3.92563,1.9877c-0.85457,-0.04158 -1.70915,-0.08315 -2.58961,-0.12598c-1.29264,-0.0485 -1.29264,-0.0485 -2.61139,-0.09798c-0.65748,-0.04158 -1.31496,-0.08315 -1.99237,-0.12598c0.92449,-1.84898 2.08413,-3.21468 3.40927,-4.80284c0.50248,-0.60462 1.00495,-1.20923 1.52266,-1.83217c0.71214,-0.85457 0.71214,-0.85457 1.43867,-1.72641c2.28,-2.76833 4.53507,-5.5556 6.76876,-8.36142c-0.69829,-1.39658 -1.35386,-2.34623 -2.33921,-3.53369c-0.31873,-0.38443 -0.63747,-0.76886 -0.96585,-1.16494c-1.15495,-1.36888 -2.32046,-2.72819 -3.48859,-4.08583c-5.54939,-6.45889 -5.54939,-6.45889 -5.54939,-7.54021c8.49638,-0.66599 8.49638,-0.66599 10.86237,0.82121c0.89318,1.13913 1.57873,2.29172 2.27699,3.55858c0.63178,0.80847 1.27875,1.60531 1.94104,2.38898c0.2864,0.35312 0.57279,0.70624 0.86787,1.07006c0.81399,0.9944 0.81399,0.9944 1.96904,2.11524c0.24123,-0.31822 0.48246,-0.63644 0.731,-0.9643c0.70274,-0.92113 1.41477,-1.83521 2.1339,-2.74359c1.12193,-1.42122 1.12193,-1.42122 1.95971,-2.86179c0.96036,-1.46341 1.68862,-2.38876 3.13864,-3.38438c6.98431,-1.28579 6.98431,-1.28579 9.5559,0z" fill="#0a60a5"/><path d="M88.17747,31.85301c5.44985,-0.66568 5.44985,-0.66568 12.34304,0c5.92267,4.64731 5.92267,4.64731 11.54672,10.65085c1.88878,1.97706 3.77757,3.95413 5.72359,5.99111c1.39606,1.60341 2.79212,3.20683 4.23048,4.85883c-1.07072,4.28286 -7.36316,9.27386 -10.17803,12.2435c-1.80718,1.94422 -3.61435,3.88843 -5.47629,5.89156c-6.84976,5.34277 -10.11709,5.53731 -18.58766,4.5602c0.49924,-1.49771 1.25103,-2.09908 2.38898,-3.1853c0.49273,-0.50505 0.49273,-0.50505 0.99541,-1.02029c0.99541,-0.97052 0.99541,-0.97052 1.99081,-1.74196c1.16391,-0.96023 2.033,-2.04249 2.98622,-3.21019c1.25396,-1.31666 2.56416,-2.44949 3.98163,-3.58346c1.0704,-1.01688 2.04063,-2.05059 2.98622,-3.1853c1.24448,-1.49338 2.51262,-2.82184 4.05628,-4.00651c1.0587,-0.78297 1.0587,-0.78297 1.71708,-2.36409c-6.96386,-6.96386 -13.92773,-13.92773 -21.10262,-21.10262c0.13139,-0.26279 0.26279,-0.52557 0.39816,-0.79633z" fill="#1861a5"/><path d="M18.82252,42.62829c2.67429,2.46454 3.23517,4.84697 3.52747,8.43451c0.01026,1.20769 0.02053,2.41539 0.0311,3.65968c0.06283,5.69663 0.06283,5.69663 0.4977,11.37252c-1.66187,0.41547 -2.92386,0.41123 -4.62864,0.32351c-0.53071,-0.02207 -1.06141,-0.04414 -1.6082,-0.06688c-0.65748,-0.12703 -0.65748,-0.12703 -1.32825,-0.25663c-0.26279,-0.52557 -0.52557,-1.05115 -0.79633,-1.59265c-0.65286,0.48041 -0.65286,0.48041 -1.31891,0.97052c-2.6361,1.63476 -5.1554,1.63374 -8.13745,1.04518c-2.22547,-1.08 -3.74787,-2.54359 -4.87749,-4.80284c-0.07009,-0.96057 -0.10649,-1.92373 -0.12443,-2.88668c-0.01488,-0.51942 -0.02977,-1.03883 -0.0451,-1.57398c0.24958,-2.22563 1.25822,-3.39679 2.80736,-4.94593c3.35126,-2.35829 6.88336,-2.89478 10.8997,-3.33461c-0.26606,-1.24537 -0.26606,-1.24537 -1.24426,-1.66731c-2.8473,-0.80467 -5.20718,-0.04216 -7.91348,0.87098c-0.39418,0.13139 -0.78836,0.26279 -1.19449,0.39816c-0.87997,-1.87472 -1.38228,-3.51267 -1.59265,-5.57428c5.02604,-3.36641 11.86698,-3.17522 17.04634,-0.37328zM8.69426,56.01651c-0.76739,1.29061 -0.71107,2.23553 -0.54747,3.70789c0.78929,0.95771 0.78929,0.95771 2.31432,0.94564c1.8437,-0.16511 2.47151,-0.33961 3.65812,-1.74196c0.42744,-1.70975 0.43007,-2.6595 0,-4.37979c-1.88295,0 -3.85214,0.45712 -5.42497,1.46822z" fill="#1a90c8"/><path d="M44.77775,41.40891c0.19709,0.19709 0.19709,0.19709 0.39816,0.39816c-0.16812,2.21917 -0.51803,4.25105 -1.19449,6.3706c-0.52557,-0.13139 -1.05115,-0.26279 -1.59265,-0.39816c-2.59693,-0.2068 -4.89486,-0.22555 -7.16693,1.19449c-1.43822,1.80937 -1.39638,3.8061 -1.33291,6.0331c0.19063,1.56144 0.63575,2.39866 1.73108,3.52281c2.66273,1.85772 5.7098,1.31544 8.75958,0.79633c0.53979,2.19289 0.89311,4.09605 0.79633,6.3706c-4.91341,1.41831 -9.4584,1.94242 -14.20943,-0.47282c-2.50949,-1.48905 -4.1904,-3.60823 -5.30054,-6.29595c-0.92239,-3.65708 -0.98646,-8.04188 0.67034,-11.47673c2.23087,-3.68722 4.98985,-5.3707 9.08464,-6.56502c3.30407,-0.50479 6.13115,-0.34783 9.35682,0.52259z" fill="#1b90c9"/><path d="M158.65226,38.22361c2.89066,0 5.78132,0 8.75958,0c0,10.90567 0,21.81135 0,33.0475c-1.56835,0.52278 -2.95143,0.45073 -4.60376,0.44793c-0.91231,0.00154 -0.91231,0.00154 -1.84306,0.00311c-1.51644,-0.05288 -1.51644,-0.05288 -2.31276,-0.45104c0,-10.90567 0,-21.81135 0,-33.0475z" fill="#0860a7"/><path d="M51.52318,42.16636c0.71368,0.00693 0.71368,0.00693 1.44178,0.014c0.71522,0.00539 0.71522,0.00539 1.4449,0.01089c0.36903,0.00462 0.73806,0.00924 1.11828,0.014c0.79633,2.28944 0.79633,2.28944 0.79633,3.1853c1.4988,0.79633 1.4988,0.79633 2.78714,1.19449c-0.26279,0.65697 -0.52557,1.31394 -0.79633,1.99081c-0.26279,0 -0.52557,0 -0.79633,0c0.02874,0.26279 0.05749,0.52557 0.0871,0.79633c0.528,5.63201 0.75644,11.5175 -0.0871,17.12099c-1.18617,0.01069 -2.37237,0.01844 -3.55858,0.02489c-0.66056,0.00462 -1.32112,0.00924 -2.0017,0.014c-1.60665,-0.03888 -1.60665,-0.03888 -2.00481,-0.43704c-0.04009,-3.9151 -0.05162,-7.8305 -0.04977,-11.7458c-0.00102,-2.1721 -0.00205,-4.34421 -0.00311,-6.58213c0.05683,-5.54875 0.05683,-5.54875 1.6222,-5.60072z" fill="#1491cd"/><path d="M179.60713,73.38946c1.7404,0.27063 1.7404,0.27063 3.16975,1.98459c0.43986,0.7319 0.87972,1.46381 1.33291,2.21789c0.44705,0.72985 0.89409,1.4597 1.35469,2.21167c1.05917,1.81973 1.05917,1.81973 1.45734,2.61605c0.03619,-0.89846 0.03619,-0.89846 0.0731,-1.81506c0.03336,-0.77245 0.06672,-1.5449 0.10109,-2.34076c0.03233,-0.77142 0.06467,-1.54285 0.09799,-2.33765c0.12598,-1.86794 0.12598,-1.86794 0.52414,-2.2661c1.36868,-0.07466 1.36868,-0.07466 2.78714,0c0.79633,0.79633 0.79633,0.79633 0.87409,4.27092c-0.00924,1.43198 -0.01848,2.86397 -0.028,4.33935c-0.00718,1.43404 -0.01437,2.86808 -0.02177,4.34557c-0.00924,1.11171 -0.01848,2.22343 -0.028,3.36883c-1.99081,0.79633 -1.99081,0.79633 -2.98311,0.6439c-1.49997,-0.96727 -2.13714,-2.25409 -3.0391,-3.77944c-0.9991,-1.67327 -1.96555,-3.26776 -3.13553,-4.82772c-0.02412,0.57023 -0.04825,1.14045 -0.0731,1.72796c-0.03336,0.7355 -0.06672,1.47099 -0.1011,2.22878c-0.03233,0.73447 -0.06467,1.46894 -0.09798,2.22567c-0.12598,1.78085 -0.12598,1.78085 -0.52415,2.17901c-1.06125,0.03316 -2.12405,0.03316 -3.1853,0c-0.39816,-0.39816 -0.39816,-0.39816 -0.45104,-3.90697c0.00103,-1.46997 0.00205,-2.93993 0.00311,-4.45444c-0.00102,-1.46997 -0.00205,-2.93993 -0.00311,-4.45444c0.05777,-3.83331 0.05777,-3.83331 1.89594,-4.1776z" fill="#1798cb"/><path d="M158.55272,73.90894c2.431,0.7865 3.91134,1.9898 5.22588,4.18071c1.23107,3.14606 1.05387,5.57405 -0.27374,8.61649c-1.08496,2.04144 -2.79303,2.79353 -4.95059,3.46526c-2.19429,0.42329 -4.44789,0.3703 -6.67078,0.21152c-2.22231,-2.22231 -0.89345,-11.04495 -0.92697,-13.86726c0.04311,-0.67955 0.08623,-1.3591 0.13065,-2.05925c2.20398,-1.46932 4.9322,-0.88081 7.46555,-0.54747zM155.0688,77.64172c0,2.89066 0,5.78132 0,8.75958c3.00724,0.23742 3.00724,0.23742 4.77795,-0.79633c1.0731,-1.87793 1.03848,-3.80935 0.52259,-5.8729c-0.68949,-1.18199 -1.25341,-1.55836 -2.5134,-2.09035c-0.91976,0 -1.83951,0 -2.78714,0z" fill="#1d96ca"/><path d="M227.13624,73.61032c1.59265,0.04977 1.59265,0.04977 1.99081,0.44793c0.02895,0.93693 0.03333,1.87469 0.02489,2.81202c-0.00359,0.51377 -0.00719,1.02754 -0.01089,1.55688c-0.00462,0.39777 -0.00924,0.79554 -0.014,1.20537c1.44533,0 2.89066,0 4.37979,0c-0.00462,-0.39777 -0.00924,-0.79555 -0.014,-1.20537c-0.00359,-0.51377 -0.00718,-1.02754 -0.01089,-1.55688c-0.00462,-0.51274 -0.00924,-1.02549 -0.014,-1.55377c0.03888,-1.25826 0.03888,-1.25826 0.43705,-1.65642c1.06164,-0.01633 2.12367,-0.01685 3.1853,0c1.06558,2.13116 0.44955,6.34138 0.44793,8.58538c0.00103,1.42942 0.00205,2.85884 0.00311,4.33158c-0.05288,3.40771 -0.05288,3.40771 -0.45104,3.80587c-1.06125,0.03316 -2.12405,0.03316 -3.1853,0c-0.81758,-0.81758 -0.56281,-2.53223 -0.62213,-3.60835c-0.03336,-0.58768 -0.06672,-1.17536 -0.1011,-1.78085c-0.02412,-0.45526 -0.04825,-0.91051 -0.0731,-1.37957c-1.31394,0 -2.62787,0 -3.98163,0c0.00462,0.45526 0.00924,0.91052 0.014,1.37957c0.00359,0.58768 0.00718,1.17536 0.01089,1.78085c0.00462,0.58665 0.00924,1.17331 0.014,1.77773c-0.03888,1.43245 -0.03888,1.43245 -0.43705,1.83062c-1.06164,0.01633 -2.12367,0.01685 -3.1853,0c-1.06558,-2.13116 -0.44955,-6.34138 -0.44793,-8.58538c-0.00103,-1.42942 -0.00205,-2.85884 -0.00311,-4.33158c0.05887,-3.79362 0.05887,-3.79362 2.04369,-3.85564z" fill="#1994c9"/><path d="M246.79552,73.53566c0.71445,0.06159 0.71445,0.06159 1.44334,0.12443c1.89107,2.52142 2.73803,5.42619 3.8572,8.36142c0.46963,1.22361 0.93926,2.44721 1.42312,3.70789c1.09028,3.06088 1.09028,3.06088 1.09028,4.65353c-3.08576,0.04977 -3.08576,0.04977 -3.98163,-0.39816c-0.29208,-1.05475 -0.55891,-2.11692 -0.79633,-3.1853c-1.9011,-0.04116 -3.71258,-0.01201 -5.57428,0.39816c-0.7524,0.70213 -0.7524,0.70213 -1.1696,1.61754c-0.271,0.51736 -0.542,1.03473 -0.82121,1.56777c-1.518,0.19908 -1.518,0.19908 -2.78714,0c-0.68994,-2.75978 0.87202,-5.13754 1.89127,-7.7144c0.43319,-1.1035 0.86638,-2.207 1.31269,-3.34395c2.29694,-5.62083 2.29694,-5.62083 4.11227,-5.78891zM246.64621,79.63253c-0.39418,1.18254 -0.78836,2.36509 -1.19449,3.58346c0.91976,0 1.83951,0 2.78714,0c-0.39418,-1.18254 -0.78836,-2.36509 -1.19449,-3.58346c-0.13139,0 -0.26279,0 -0.39816,0z" fill="#1f94c7"/><path d="M140.73494,73.66009c1.46852,1.46852 0.63137,7.67706 0.68434,9.70521c-0.19519,2.42044 -0.19519,2.42044 0.51015,3.03599c0.65697,0 1.31394,0 1.99081,0c0.98355,-0.98355 0.58793,-5.22798 0.62213,-6.39549c0.03336,-1.10504 0.06672,-2.21008 0.1011,-3.34861c0.03619,-1.28648 0.03619,-1.28648 0.0731,-2.59894c1.18737,-0.59368 2.27594,-0.44571 3.58346,-0.39816c0.99953,0.99953 0.51286,5.49073 0.52259,6.64434c0.01488,1.15124 0.02977,2.30247 0.0451,3.48859c-0.16342,2.8981 -0.38922,4.14727 -2.58339,6.14197c-1.85984,0.71228 -3.58979,0.78434 -5.54939,0.44793c-1.87441,-1.12465 -2.61862,-1.83361 -3.25529,-3.93186c-0.40311,-2.50652 -0.40345,-4.90286 -0.37794,-7.44066c0.00719,-0.92848 0.01437,-1.85696 0.02178,-2.81358c0.00924,-0.70573 0.01847,-1.41145 0.02799,-2.13857c1.18737,-0.59368 2.27594,-0.44571 3.58346,-0.39816z" fill="#1692c9"/><path d="M222.40961,75.38494c0.24585,0.21916 0.4917,0.43832 0.745,0.66412c0,1.59265 0,1.59265 -0.79633,2.48852c-0.26279,0.22994 -0.52557,0.45988 -0.79633,0.69678c-0.8295,-0.41475 -1.65901,-0.8295 -2.48852,-1.24426c-1.88724,-0.60049 -3.58723,-0.63464 -5.42497,0.12443c-1.42073,1.2118 -1.60385,2.28058 -1.76685,4.10605c0.13439,1.50517 0.38137,2.21245 1.31891,3.38438c1.91463,0.95731 3.05405,0.96838 5.17611,0.79633c1.39131,-0.72678 1.39131,-0.72678 2.38898,-1.59265c1.59265,0.79633 1.59265,0.79633 2.78714,1.99081c-1.01487,2.02974 -2.357,2.73193 -4.37979,3.58346c-2.74813,0.61069 -4.59732,0.34164 -7.16693,-0.79633c-2.69959,-1.95938 -3.74495,-3.45935 -4.33002,-6.71899c-0.18571,-2.57668 0.57839,-4.40786 2.04058,-6.51991c3.91826,-3.91826 8.13553,-3.66115 12.69299,-0.96275z" fill="#1c94c9"/><path d="M8.14678,49.77033c0.13139,0.26279 0.26279,0.52557 0.39816,0.79633c0.26279,0 0.52557,0 0.79633,0c0.39418,0.39418 0.78836,0.78836 1.19449,1.19449c0.66555,-0.1226 1.32909,-0.25636 1.99081,-0.39816c1.11983,0.37328 1.11983,0.37328 1.99081,0.79633c-0.13139,0.65697 -0.26279,1.31394 -0.39816,1.99081c-0.91976,-0.13139 -1.83951,-0.26279 -2.78714,-0.39816c0,0.52557 0,1.05115 0,1.59265c-0.46809,0.17245 -0.46809,0.17245 -0.94564,0.34839c-1.08369,0.38786 -1.08369,0.38786 -1.8415,1.24426c-0.08865,1.59567 0.00877,2.82223 0.39816,4.37979c0.65697,0 1.31394,0 1.99081,0c-0.26279,0.39418 -0.52557,0.78836 -0.79633,1.19449c-0.39418,0 -0.78836,0 -1.19449,0c0.3318,0.86269 0.3318,0.86269 1.19449,1.19449c-0.65697,0.65697 -1.31394,1.31394 -1.99081,1.99081c0.26279,0.13139 0.52557,0.26279 0.79633,0.39816c-0.69715,-0.03486 -1.39389,-0.07793 -2.09035,-0.12443c-0.58203,-0.03464 -0.58203,-0.03464 -1.17582,-0.06999c-1.11361,-0.20375 -1.11361,-0.20375 -2.70626,-1.39824c0,-0.26279 0,-0.52557 0,-0.79633c-0.31206,-0.03285 -0.62412,-0.0657 -0.94564,-0.09954c-0.34491,-0.09855 -0.68982,-0.19709 -1.04518,-0.29862c-0.85724,-1.71448 -0.92676,-2.63811 -0.94564,-4.5291c-0.01129,-0.51223 -0.02258,-1.02446 -0.03422,-1.55221c0.27204,-2.19932 1.28709,-3.38366 2.82136,-4.91793c1.70397,-1.19909 3.36928,-1.82456 5.32543,-2.53829z" fill="#1991cb"/><path d="M168.9065,73.56833c1.14482,0.00847 1.14482,0.00847 2.31276,0.01711c0.76424,0.00256 1.52848,0.00513 2.31588,0.00778c1.83995,0.06688 1.83995,0.06688 2.23811,0.46504c0.01636,1.19438 0.01682,2.3891 0,3.58346c-1.83951,0 -3.67902,0 -5.57428,0c0.26279,0.52557 0.52557,1.05115 0.79633,1.59265c1.14619,0.28084 1.14619,0.28084 2.43875,0.29862c0.6544,0.03388 0.6544,0.03388 1.32203,0.06843c0.33567,0.01026 0.67134,0.02053 1.01718,0.03111c0,1.18254 0,2.36509 0,3.58346c-1.83951,0 -3.67902,0 -5.57428,0c0,1.05115 0,2.1023 0,3.1853c0.55355,-0.00693 0.55355,-0.00693 1.11828,-0.014c0.47682,-0.00359 0.95363,-0.00718 1.44489,-0.01089c0.47579,-0.00462 0.95158,-0.00924 1.44179,-0.014c1.17116,0.03888 1.17116,0.03888 1.56932,0.43705c0.03317,1.06125 0.03317,2.12405 0,3.1853c-0.39816,0.39816 -0.39816,0.39816 -2.25211,0.45104c-0.76783,-0.00103 -1.53566,-0.00205 -2.32676,-0.00311c-0.76783,0.00103 -1.53566,0.00205 -2.32676,0.00311c-1.85394,-0.05288 -1.85394,-0.05288 -2.25211,-0.45104c-0.36917,-3.47179 -0.46324,-6.91224 -0.47282,-10.402c-0.00565,-0.94542 -0.01129,-1.89084 -0.01711,-2.8649c0.12257,-3.02065 0.12257,-3.02065 2.78092,-3.14953z" fill="#1896cb"/><path d="M289.24961,74.05825c6.76876,0 6.76876,0 9.15774,1.59265c0.85613,1.71226 0.96089,2.50369 0.79633,4.37979c-0.74032,1.66573 -1.09821,1.94268 -2.78714,2.78714c0.38802,0.726 0.38802,0.726 0.78388,1.46667c0.33259,0.62463 0.66518,1.24927 1.00785,1.89283c0.33259,0.62361 0.66518,1.24721 1.00785,1.88972c0.78388,1.51955 0.78388,1.51955 0.78388,1.91771c-2.88668,0.57734 -2.88668,0.57734 -4.05628,-0.12443c-1.08312,-1.606 -1.88319,-3.30096 -2.71248,-5.05169c-0.13139,1.70812 -0.26279,3.41624 -0.39816,5.17611c-1.18254,0 -2.36509,0 -3.58346,0c0,-5.25575 0,-10.51149 0,-15.92651zM292.83307,77.64172c0,0.78836 0,1.57672 0,2.38898c0.65697,0 1.31394,0 1.99081,0c0.26279,-0.65697 0.52557,-1.31394 0.79633,-1.99081c-0.44807,-0.53998 -0.44807,-0.53998 -1.61754,-0.42305c-0.38597,0.00821 -0.77194,0.01642 -1.1696,0.02489z" fill="#1593cb"/><path d="M280.0421,73.61032c2.29124,0.01802 4.54022,0.21123 6.81854,0.44793c0.01685,1.06163 0.01633,2.12366 0,3.1853c-0.39816,0.39816 -0.39816,0.39816 -1.56932,0.43705c-0.71368,-0.00693 -0.71368,-0.00693 -1.44178,-0.014c-0.71522,-0.00539 -0.71522,-0.00539 -1.4449,-0.01089c-0.36903,-0.00462 -0.73806,-0.00924 -1.11828,-0.014c0,0.65697 0,1.31394 0,1.99081c1.83951,0 3.67902,0 5.57428,0c0,1.18254 0,2.36509 0,3.58346c-1.83951,0 -3.67902,0 -5.57428,0c0,1.05115 0,2.1023 0,3.1853c0.55355,-0.00693 0.55355,-0.00693 1.11828,-0.014c0.47682,-0.00359 0.95363,-0.00718 1.4449,-0.01089c0.47579,-0.00462 0.95158,-0.00924 1.44178,-0.014c1.17116,0.03888 1.17116,0.03888 1.56932,0.43705c0,1.05115 0,2.1023 0,3.1853c-3.02205,0 -6.04411,0 -9.15774,0c-0.01067,-2.64611 -0.01844,-5.29224 -0.02489,-7.93837c-0.00462,-1.47356 -0.00924,-2.94712 -0.014,-4.46533c0.04317,-3.91087 0.04317,-3.91087 2.37809,-3.97074z" fill="#1794cc"/><path d="M258.83994,73.58543c2.50634,0.02973 4.40531,0.1909 6.47014,1.71708c1.10361,1.49312 1.24426,2.48293 1.24426,4.33002c-0.52846,1.71748 -1.04566,2.28227 -2.5134,3.33461c-1.4777,0.65119 -2.28083,0.70482 -3.8572,0.64701c0.00462,0.45526 0.00924,0.91052 0.014,1.37957c0.00359,0.58768 0.00718,1.17536 0.01089,1.78085c0.00462,0.58665 0.00924,1.17331 0.014,1.77773c-0.03888,1.43245 -0.03888,1.43245 -0.43705,1.83062c-1.06125,0.03316 -2.12405,0.03316 -3.1853,0c-0.39816,-0.39816 -0.39816,-0.39816 -0.45104,-3.90697c0.00103,-1.46997 0.00205,-2.93993 0.00311,-4.45444c-0.00103,-1.46997 -0.00205,-2.93993 -0.00311,-4.45444c0.05976,-3.96531 0.05976,-3.96531 2.69071,-3.98163zM260.18374,77.64172c0,0.65697 0,1.31394 0,1.99081c0.52557,0 1.05115,0 1.59265,0c0.26279,0 0.52557,0 0.79633,0c-0.13139,-0.65697 -0.26279,-1.31394 -0.39816,-1.99081c-0.65697,0 -1.31394,0 -1.99081,0z" fill="#2194c7"/><path d="M123.21579,73.66009c1.12637,0.69423 1.86009,1.42162 2.78714,2.38898c-0.39816,1.19449 -0.39816,1.19449 -1.99081,2.38898c-0.99541,-0.34839 -0.99541,-0.34839 -1.99081,-0.79633c-0.52557,0.13139 -1.05115,0.26279 -1.59265,0.39816c0.36441,0.32643 0.72882,0.65286 1.10428,0.98919c0.47322,0.42908 0.94644,0.85816 1.43401,1.30025c0.47117,0.42497 0.94234,0.84995 1.42779,1.28781c1.36423,1.35371 1.95572,2.2363 2.13079,4.16204c-0.16911,1.92783 -0.69819,2.86378 -2.14012,4.13094c-1.71156,0.69191 -3.34772,0.73829 -5.15123,0.47282c-1.5351,-0.79496 -2.22893,-1.35259 -3.1853,-2.78714c0.39816,-1.59265 0.39816,-1.59265 1.59265,-2.38898c0.52557,0 1.05115,0 1.59265,0c0.26279,0.39418 0.52557,0.78836 0.79633,1.19449c0.65697,0 1.31394,0 1.99081,0c0.13139,-0.26279 0.26279,-0.52557 0.39816,-0.79633c-0.95178,-1.30869 -1.97157,-2.33302 -3.21019,-3.3595c-1.3358,-1.15387 -2.22287,-2.08139 -2.76225,-3.80743c-0.03193,-1.82014 0.20161,-2.55026 1.36868,-3.95674c1.81525,-1.05093 3.37545,-1.2899 5.40008,-0.82121z" fill="#1c94c8"/><path d="M129.13846,73.60721c0.80479,0.00103 1.60957,0.00205 2.43875,0.00311c0.80479,-0.00103 1.60957,-0.00205 2.43875,-0.00311c1.94104,0.05288 1.94104,0.05288 2.33921,0.45104c0.03316,1.06125 0.03316,2.12405 0,3.1853c-0.13139,0.13139 -0.26279,0.26279 -0.39816,0.39816c-0.78836,0 -1.57672,0 -2.38898,0c0.00462,0.88639 0.00924,1.77279 0.014,2.68605c0.00359,1.14199 0.00718,2.28399 0.01089,3.46059c0.00462,1.14097 0.00924,2.28194 0.014,3.45749c-0.03888,2.73892 -0.03888,2.73892 -0.43705,3.13708c-1.06125,0.03317 -2.12405,0.03317 -3.1853,0c-0.39816,-0.39816 -0.39816,-0.39816 -0.43705,-3.13708c0.00462,-1.14097 0.00924,-2.28194 0.014,-3.45749c0.00359,-1.14199 0.00719,-2.28399 0.01089,-3.46059c0.00462,-0.88639 0.00924,-1.77279 0.014,-2.68605c-0.78836,0 -1.57672,0 -2.38898,0c-0.39816,-0.39816 -0.39816,-0.39816 -0.44793,-1.99081c0.06188,-1.98029 0.06188,-1.98029 2.38898,-2.04369z" fill="#2493c3"/><path d="M194.83529,73.60721c0.80479,0.00103 1.60957,0.00205 2.43875,0.00311c0.80479,-0.00103 1.60957,-0.00205 2.43875,-0.00311c1.94104,0.05288 1.94104,0.05288 2.33921,0.45104c0.03316,1.06125 0.03316,2.12405 0,3.1853c-0.13139,0.13139 -0.26279,0.26279 -0.39816,0.39816c-0.78836,0 -1.57672,0 -2.38898,0c0.00924,0.68623 0.01848,1.37245 0.02799,2.07947c0.01078,1.34807 0.01078,1.34807 0.02178,2.72337c0.00924,0.89153 0.01848,1.78306 0.02799,2.7016c-0.06255,1.97029 -0.20103,3.41103 -0.87409,5.23677c-0.92889,0.01689 -1.85824,0.0163 -2.78714,0c-0.98355,-0.98355 -0.58793,-5.22797 -0.62213,-6.39549c-0.03336,-1.10504 -0.06672,-2.21008 -0.1011,-3.34861c-0.02412,-0.85765 -0.04825,-1.7153 -0.0731,-2.59895c-1.18254,-0.19709 -1.18254,-0.19709 -2.38898,-0.39816c-0.01682,-1.19437 -0.01636,-2.38909 0,-3.58346c0.39816,-0.39816 0.39816,-0.39816 2.33921,-0.45104z" fill="#1296cb"/><path d="M66.95043,41.28449c1.58992,0.85257 2.35523,1.41757 3.30973,2.91156c-0.36133,0.09034 -0.72267,0.18067 -1.09495,0.27374c-1.35574,0.42265 -1.35574,0.42265 -2.11524,1.56777c-0.38186,0.46809 -0.38186,0.46809 -0.77144,0.94564c-0.65697,0 -1.31394,0 -1.99081,0c0,1.31394 0,2.62787 0,3.98163c-0.26279,-0.52557 -0.52557,-1.05115 -0.79633,-1.59265c-0.26279,-0.39418 -0.52557,-0.78836 -0.79633,-1.19449c-1.57592,-0.19911 -1.57592,-0.19911 -3.1853,0c-1.27843,1.15252 -1.27843,1.15252 -1.99081,2.78714c-0.07466,-1.11983 -0.07466,-1.11983 0,-2.38898c0.39418,-0.39418 0.78836,-0.78836 1.19449,-1.19449c0.13139,-0.26279 0.26279,-0.52557 0.39816,-0.79633c-0.52557,-0.13139 -1.05115,-0.26279 -1.59265,-0.39816c-1.49375,-1.195 -1.59219,-1.59035 -1.99081,-3.58346c-1.70812,0 -3.41624,0 -5.17611,0c-0.13139,7.75223 -0.26279,15.50445 -0.39816,23.4916c-0.13139,0 -0.26279,0 -0.39816,0c0,-8.14641 0,-16.29282 0,-24.68608c2.23369,0 4.46738,0 6.76876,0c0.26279,0.65697 0.52557,1.31394 0.79633,1.99081c0.26279,-0.23815 0.52557,-0.4763 0.79633,-0.72167c2.9564,-2.15571 5.62494,-2.62058 9.03331,-1.39357z" fill="#218fc4"/><path d="M179.60713,73.39257c1.7404,0.26752 1.7404,0.26752 3.16975,1.95349c0.43986,0.72472 0.87972,1.44944 1.33291,2.19612c0.44705,0.72061 0.89409,1.44122 1.35469,2.18367c1.05917,1.8975 1.05917,1.8975 1.45734,3.49015c-0.26279,0.13139 -0.52557,0.26278 -0.79633,0.39816c0,-0.52557 0,-1.05115 0,-1.59265c-0.26279,0 -0.52557,0 -0.79633,0c-0.18888,-0.32027 -0.37776,-0.64054 -0.57236,-0.97052c-0.54243,-1.13648 -0.54243,-1.13648 -1.81662,-1.41845c0,0.91976 0,1.83951 0,2.78714c-0.26279,-0.13139 -0.52557,-0.26279 -0.79633,-0.39816c-0.02412,0.57022 -0.04825,1.14045 -0.0731,1.72796c-0.03336,0.7355 -0.06672,1.47099 -0.1011,2.22878c-0.03233,0.73447 -0.06467,1.46894 -0.09798,2.22567c-0.12598,1.78085 -0.12598,1.78085 -0.52415,2.17901c-1.06125,0.03316 -2.12405,0.03316 -3.1853,0c-0.39816,-0.39816 -0.39816,-0.39816 -0.45104,-3.90697c0.00103,-1.46997 0.00205,-2.93993 0.00311,-4.45444c-0.00102,-1.46997 -0.00205,-2.93993 -0.00311,-4.45444c0.05779,-3.83416 0.05779,-3.83416 1.89594,-4.17449z" fill="#1b91c4"/><path d="M267.35066,74.05825c3.02205,0 6.04411,0 9.15774,0c0,1.05115 0,2.1023 0,3.1853c-0.13139,0.13139 -0.26279,0.26279 -0.39816,0.39816c-0.78836,0 -1.57672,0 -2.38898,0c0,4.0732 0,8.14641 0,12.34304c-1.05115,0.13139 -2.1023,0.26279 -3.1853,0.39816c-0.98203,-0.98203 -0.60716,-4.97096 -0.64701,-6.14664c-0.03798,-1.05885 -0.07596,-2.1177 -0.11509,-3.20863c-0.03422,-2.58961 -0.03422,-2.58961 0.36394,-3.38594c-0.57895,0.01232 -0.57895,0.01232 -1.1696,0.02489c-1.21937,-0.02489 -1.21937,-0.02489 -1.61754,-0.42305c0,-1.05115 0,-2.1023 0,-3.1853z" fill="#1594ce"/><path d="M153.47615,73.66009c3.13081,-0.11385 5.70348,0.04032 8.31165,1.89127c1.89175,1.96742 2.68917,3.79828 2.96133,6.51991c-0.20131,2.49625 -0.92106,4.72849 -2.71248,6.51991c-1.70631,1.02379 -2.53712,1.39357 -4.57887,1.39357c0.52557,-0.26279 1.05115,-0.52557 1.59265,-0.79633c0.19709,-0.19709 0.19709,-0.19709 0.39816,-0.39816c-0.49273,-0.271 -0.49273,-0.271 -0.99541,-0.54747c-0.32848,-0.21351 -0.65697,-0.42703 -0.99541,-0.64701c0,-0.26279 0,-0.52557 0,-0.79633c-0.91976,0 -1.83951,0 -2.78714,0c-0.46696,-1.86785 -0.45084,-3.52458 -0.44793,-5.44985c-0.00103,-0.68314 -0.00205,-1.36629 -0.00311,-2.07014c0.05288,-1.63775 0.05288,-1.63775 0.45104,-2.03592c0.93693,-0.02895 1.87469,-0.03333 2.81202,-0.02489c0.51377,0.00359 1.02754,0.00719 1.55688,0.01089c0.39777,0.00462 0.79554,0.00924 1.20537,0.014c-0.13139,-0.65697 -0.26279,-1.31394 -0.39816,-1.99081c-2.1023,-0.39418 -4.2046,-0.78836 -6.3706,-1.19449c0,-0.13139 0,-0.26279 0,-0.39816zM155.0688,77.64172c0,2.89066 0,5.78132 0,8.75958c3.00724,0.23742 3.00724,0.23742 4.77795,-0.79633c1.0731,-1.87793 1.03848,-3.80935 0.52259,-5.8729c-0.68949,-1.18199 -1.25341,-1.55836 -2.5134,-2.09035c-0.91976,0 -1.83951,0 -2.78714,0z" fill="#2090c0"/><path d="M227.13624,73.61032c1.59265,0.04977 1.59265,0.04977 1.99081,0.44793c0.11359,1.44241 0.17882,2.88481 0.24729,4.33002c0.04979,0.41061 0.09957,0.82121 0.15087,1.24426c0.26279,0.13139 0.52557,0.26279 0.79633,0.39816c-0.26279,0.52557 -0.52557,1.05115 -0.79633,1.59265c0,0.39418 0,0.78836 0,1.19449c1.31394,-0.13139 2.62787,-0.26279 3.98163,-0.39816c0.13139,0.26279 0.26279,0.52557 0.39816,0.79633c-1.57672,0.13139 -3.15345,0.26279 -4.77795,0.39816c0.00462,0.45526 0.00924,0.91052 0.014,1.37957c0.00359,0.58768 0.00718,1.17536 0.01089,1.78085c0.00462,0.58665 0.00924,1.17331 0.014,1.77773c-0.03888,1.43245 -0.03888,1.43245 -0.43705,1.83062c-1.06164,0.01633 -2.12367,0.01685 -3.1853,0c-1.06558,-2.13116 -0.44955,-6.34138 -0.44793,-8.58538c-0.00103,-1.42942 -0.00205,-2.85884 -0.00311,-4.33158c0.05887,-3.79362 0.05887,-3.79362 2.04369,-3.85564z" fill="#1c96c8"/><path d="M140.73494,73.66009c0.99283,0.99283 0.59035,5.63598 0.62213,6.79365c0.05004,1.76842 0.05004,1.76842 0.1011,3.57258c0.02412,0.91513 0.04825,1.83027 0.0731,2.77314c0.78836,0.26279 1.57672,0.52557 2.38898,0.79633c0.39816,1.59265 0.39816,1.59265 0,2.38898c-1.44334,0.39816 -1.44334,0.39816 -3.1853,0.39816c-1.82695,-1.11974 -2.62868,-1.87139 -3.25996,-3.93341c-0.3975,-2.50541 -0.39876,-4.90325 -0.37328,-7.43911c0.00719,-0.92848 0.01437,-1.85696 0.02178,-2.81358c0.00924,-0.70573 0.01847,-1.41145 0.02799,-2.13857c1.18737,-0.59368 2.27594,-0.44571 3.58346,-0.39816z" fill="#1b96cb"/><path d="M151.08717,39.01994c0.13139,0.39418 0.26279,0.78836 0.39816,1.19449c-1.61361,2.9967 -1.61361,2.9967 -3.58346,3.98163c-0.38597,0.4763 -0.77194,0.9526 -1.1696,1.44334c-0.60359,0.66518 -0.60359,0.66518 -1.21937,1.3438c-1.99081,0 -1.99081,0 -3.1853,-0.79633c-0.1451,-0.66101 -0.27861,-1.32471 -0.39816,-1.99081c-0.26279,-0.13139 -0.52557,-0.26279 -0.79633,-0.39816c0,0.26279 0,0.52557 0,0.79633c-0.52557,0.13139 -1.05115,0.26279 -1.59265,0.39816c0,-1.80402 0.94561,-2.3942 2.18989,-3.65812c2.99975,-2.7484 5.44032,-2.8573 9.35682,-2.31432z" fill="#0761ab"/><path d="M256.60027,73.66009c6.63605,0.66361 6.63605,0.66361 8.75958,2.78714c-0.13139,0.52557 -0.26279,1.05115 -0.39816,1.59265c-0.26279,0 -0.52557,0 -0.79633,0c-0.26279,0.26279 -0.52557,0.52557 -0.79633,0.79633c0,-0.52557 0,-1.05115 0,-1.59265c-1.05115,0.13139 -2.1023,0.26279 -3.1853,0.39816c0.13139,0.65697 0.26279,1.31394 0.39816,1.99081c1.61109,0.21481 3.15082,0.39816 4.77795,0.39816c-0.13139,0.52557 -0.26279,1.05115 -0.39816,1.59265c-0.52557,0 -1.05115,0 -1.59265,0c-0.39418,0.39418 -0.78836,0.78836 -1.19449,1.19449c-0.93294,-0.10177 -1.86278,-0.23599 -2.78714,-0.39816c-0.52557,0.13139 -1.05115,0.26279 -1.59265,0.39816c-0.26279,0 -0.52557,0 -0.79633,0c-0.13139,-3.02205 -0.26279,-6.04411 -0.39816,-9.15774z" fill="#1297cf"/><path d="M122.41946,80.42885c1.85754,0.92877 3.0446,2.10758 3.98163,3.98163c0.14968,1.98328 0.07028,3.20789 -1.19449,4.77795c-1.51172,1.32848 -3.02066,1.39658 -5.00036,1.33758c-1.42653,-0.20999 -2.28852,-0.79728 -3.36105,-1.73574c-0.26279,-0.39418 -0.52557,-0.78836 -0.79633,-1.19449c0.39816,-1.59265 0.39816,-1.59265 1.59265,-2.38898c0.52557,0 1.05115,0 1.59265,0c0.39418,0.59127 0.39418,0.59127 0.79633,1.19449c0.65697,0 1.31394,0 1.99081,0c0.13139,-0.26279 0.26279,-0.52557 0.39816,-0.79633c-0.52557,-0.78836 -1.05115,-1.57672 -1.59265,-2.38898c0.52557,0.26279 1.05115,0.52557 1.59265,0.79633c0.52557,0.13139 1.05115,0.26279 1.59265,0.39816c0.13139,-0.65697 0.26279,-1.31394 0.39816,-1.99081c-0.65697,0 -1.31394,0 -1.99081,0c0,-0.65697 0,-1.31394 0,-1.99081z" fill="#2791bc"/><path d="M282.08268,80.42885c1.44533,0 2.89066,0 4.37979,0c0,0.78836 0,1.57672 0,2.38898c-1.70812,0 -3.41624,0 -5.17611,0c0,1.31394 0,2.62787 0,3.98163c0.34029,-0.00462 0.68058,-0.00924 1.03118,-0.014c0.43986,-0.00359 0.87972,-0.00718 1.33291,-0.01089c0.43883,-0.00462 0.87767,-0.00924 1.3298,-0.014c1.08406,0.03888 1.08406,0.03888 1.48222,0.43705c0,0.78836 0,1.57672 0,2.38898c-2.62787,0 -5.25575,0 -7.96325,0c0.34128,-5.06236 0.34128,-5.06236 1.19449,-7.56509c0.52557,0 1.05115,0 1.59265,0c0.26279,-0.52557 0.52557,-1.05115 0.79633,-1.59265z" fill="#1193d0"/><path d="M153.07798,38.22361c-0.70935,1.4187 -1.26123,2.13274 -2.38898,3.1853c0.13139,-0.78836 0.26279,-1.57672 0.39816,-2.38898c-2.98219,-0.19907 -5.42476,-0.25636 -7.94614,1.48844c-1.26286,1.18489 -2.45622,2.38851 -3.60057,3.68767c0.52557,0.13139 1.05115,0.26279 1.59265,0.39816c0,-0.26279 0,-0.52557 0,-0.79633c0.39418,0.13139 0.78836,0.26279 1.19449,0.39816c0,0.65697 0,1.31394 0,1.99081c1.45642,0.47775 1.45642,0.47775 3.1853,0.39816c1.12482,-0.92298 1.95516,-1.99713 2.78714,-3.1853c0.26279,0.13139 0.52557,0.26279 0.79633,0.39816c-0.48163,0.66927 -0.97291,1.33161 -1.46822,1.99081c-0.27254,0.36954 -0.54508,0.73909 -0.82588,1.11983c-0.8912,0.87098 -0.8912,0.87098 -2.88201,0.87098c-0.74155,0.95901 -0.74155,0.95901 -1.19449,1.99081c-0.65697,-0.13139 -1.31394,-0.26279 -1.99081,-0.39816c-0.13139,0.39418 -0.26279,0.78836 -0.39816,1.19449c-1.42541,-1.24724 -1.78431,-2.4019 -1.94104,-4.23048c0.07946,-3.21398 2.13125,-4.81663 4.33002,-6.91808c0.26279,-0.39418 0.52557,-0.78836 0.79633,-1.19449c1.96593,-0.21775 1.96593,-0.21775 4.37979,-0.29862c1.19486,-0.04619 1.19486,-0.04619 2.41386,-0.09332c1.96593,-0.00622 1.96593,-0.00622 2.76225,0.39194z" fill="#075da7"/><path d="M292.83307,77.24355c0.91976,0 1.83951,0 2.78714,0c0.44793,1.31891 0.44793,1.31891 0.79633,2.78714c-0.39418,0.59127 -0.39418,0.59127 -0.79633,1.19449c1.18254,0.19709 1.18254,0.19709 2.38898,0.39816c-0.39418,0.59127 -0.39418,0.59127 -0.79633,1.19449c-0.26279,0 -0.52557,0 -0.79633,0c0.25868,0.484 0.51736,0.968 0.78388,1.46667c0.33259,0.62463 0.66518,1.24927 1.00785,1.89283c0.33259,0.62361 0.66518,1.24721 1.00785,1.88972c0.78388,1.51955 0.78388,1.51955 0.78388,1.91771c-1.49311,0.29862 -1.49311,0.29862 -3.1853,0.39816c-1.38624,-1.07589 -2.00486,-2.28902 -2.6876,-3.88209c-0.2556,-0.58819 -0.2556,-0.58819 -0.51637,-1.18827c-0.12523,-0.29769 -0.25047,-0.59538 -0.3795,-0.90209c0.39418,-0.13139 0.78836,-0.26279 1.19449,-0.39816c0.13139,-0.52557 0.26279,-1.05115 0.39816,-1.59265c-0.26279,-0.13139 -0.52557,-0.26279 -0.79633,-0.39816c0.26279,0 0.52557,0 0.79633,0c0,-0.39418 0,-0.78836 0,-1.19449c-0.52557,-0.26279 -1.05115,-0.52557 -1.59265,-0.79633c0.52557,-0.13139 1.05115,-0.26279 1.59265,-0.39816c0.13139,-0.52557 0.26279,-1.05115 0.39816,-1.59265c-1.18254,-0.19709 -1.18254,-0.19709 -2.38898,-0.39816c0,-0.13139 0,-0.26279 0,-0.39816z" fill="#1d93c4"/><path d="M194.83529,73.60721c0.80479,0.00103 1.60957,0.00205 2.43875,0.00311c0.80479,-0.00103 1.60957,-0.00205 2.43875,-0.00311c1.94104,0.05288 1.94104,0.05288 2.33921,0.45104c0.01633,1.06164 0.01685,2.12367 0,3.1853c-2.6876,0.79633 -2.6876,0.79633 -3.58346,0.79633c0,-0.39418 0,-0.78836 0,-1.19449c0.26279,0 0.52557,0 0.79633,0c0,-0.26279 0,-0.52557 0,-0.79633c-0.39418,0.26279 -0.78836,0.52557 -1.19449,0.79633c-0.66709,-0.11389 -1.3314,-0.24599 -1.99081,-0.39816c-0.39418,0.19709 -0.39418,0.19709 -0.79633,0.39816c0,-0.78836 0,-1.57672 0,-2.38898c-0.65697,-0.13139 -1.31394,-0.26279 -1.99081,-0.39816c0.13139,0.91976 0.26279,1.83951 0.39816,2.78714c0.65697,0.13139 1.31394,0.26279 1.99081,0.39816c0,4.2046 0,8.4092 0,12.7412c-0.13139,0 -0.26279,0 -0.39816,0c-0.13139,-3.94181 -0.26279,-7.88362 -0.39816,-11.94488c-1.18254,-0.19709 -1.18254,-0.19709 -2.38898,-0.39816c-0.01682,-1.19437 -0.01636,-2.38909 0,-3.58346c0.39816,-0.39816 0.39816,-0.39816 2.33921,-0.45104z" fill="#2295c5"/><path d="M244.25723,83.21599c0.27254,0.12626 0.54508,0.25252 0.82588,0.38261c1.32321,0.46992 2.4779,0.57775 3.87742,0.66257c0.69367,0.04465 0.69367,0.04465 1.40135,0.09021c0.35055,0.01951 0.70111,0.03901 1.06229,0.0591c0.13139,0.65697 0.26279,1.31394 0.39816,1.99081c0.39418,0 0.78836,0 1.19449,0c1.4004,1.4004 1.41219,2.06872 1.59265,3.98163c-3.08576,0.04977 -3.08576,0.04977 -3.98163,-0.39816c-0.29208,-1.05475 -0.55891,-2.11692 -0.79633,-3.1853c-0.4219,0.00924 -0.84379,0.01848 -1.27848,0.02799c-0.54713,0.00719 -1.09426,0.01437 -1.65797,0.02178c-0.81762,0.01386 -0.81762,0.01386 -1.65175,0.02799c-1.38424,-0.07777 -1.38424,-0.07777 -2.18056,-0.87409c0.52557,-0.26279 1.05115,-0.52557 1.59265,-0.79633c-0.13139,-0.13139 -0.26279,-0.26279 -0.39816,-0.39816c0,-0.52557 0,-1.05115 0,-1.59265z" fill="#1996cc"/><path d="M171.79163,79.23437c1.31394,0.13139 2.62787,0.26279 3.98163,0.39816c0,1.18254 0,2.36509 0,3.58346c-1.83951,0 -3.67902,0 -5.57428,0c0,1.05115 0,2.1023 0,3.1853c0.55355,-0.00693 0.55355,-0.00693 1.11828,-0.014c0.47682,-0.00359 0.95363,-0.00718 1.4449,-0.01089c0.47579,-0.00462 0.95158,-0.00924 1.44178,-0.014c1.17116,0.03888 1.17116,0.03888 1.56932,0.43705c0.03316,1.06125 0.03316,2.12405 0,3.1853c-0.39816,0.39816 -0.39816,0.39816 -2.25211,0.45104c-0.76783,-0.00103 -1.53567,-0.00205 -2.32676,-0.00311c-0.76783,0.00103 -1.53567,0.00205 -2.32676,0.00311c-1.85394,-0.05288 -1.85394,-0.05288 -2.25211,-0.45104c-0.02878,-0.73775 -0.03337,-1.47652 -0.02489,-2.21478c0.00359,-0.4029 0.00719,-0.80581 0.01089,-1.22093c0.00462,-0.31155 0.00924,-0.62309 0.014,-0.94408c0.13139,0 0.26279,0 0.39816,0c0.13139,1.31394 0.26279,2.62787 0.39816,3.98163c2.49648,0.13139 4.99296,0.26279 7.56509,0.39816c0,-1.05115 0,-2.1023 0,-3.1853c-0.39315,0.03798 -0.78631,0.07596 -1.19138,0.11509c-0.51018,0.04414 -1.02035,0.08828 -1.54599,0.13376c-0.76219,0.06929 -0.76219,0.06929 -1.53977,0.13998c-0.42806,0.00308 -0.85611,0.00616 -1.29714,0.00933c-0.26279,-0.26279 -0.52557,-0.52557 -0.79633,-0.79633c0,-0.39418 0,-0.78836 0,-1.19449c0.26279,0 0.52557,0 0.79633,0c-0.13139,-1.44533 -0.26279,-2.89066 -0.39816,-4.37979c0.52557,0.13139 1.05115,0.26279 1.59265,0.39816c0,0.39418 0,0.78836 0,1.19449c0.26279,0 0.52557,0 0.79633,0c0.13139,-1.05115 0.26279,-2.1023 0.39816,-3.1853z" fill="#2292c3"/><path d="M13.72106,59.7244c0.39418,0.13139 0.78836,0.26279 1.19449,0.39816c-0.20941,0.45577 -0.20941,0.45577 -0.42305,0.92075c-0.50213,1.08901 -0.50213,1.08901 0.02489,2.26455c-0.39418,0 -0.78836,0 -1.19449,0c0,0.39418 0,0.78836 0,1.19449c-0.26279,0 -0.52557,0 -0.79633,0c-0.13139,0.52557 -0.26279,1.05115 -0.39816,1.59265c-2.8396,1.04942 -5.33381,0.94605 -8.13745,-0.12443c-1.02029,-0.6719 -1.02029,-0.6719 -2.21478,-2.26455c0.39418,0 0.78836,0 1.19449,0c0,0.26279 0,0.52557 0,0.79633c2.52835,0.91473 2.52835,0.91473 5.17611,1.19449c0.13139,-0.26279 0.26279,-0.52557 0.39816,-0.79633c0.26279,-0.39418 0.52557,-0.78836 0.79633,-1.19449c-0.13139,-0.39418 -0.26279,-0.78836 -0.39816,-1.19449c0.52557,-0.26279 1.05115,-0.52557 1.59265,-0.79633c-0.52557,-0.13139 -1.05115,-0.26279 -1.59265,-0.39816c0,-0.26279 0,-0.52557 0,-0.79633c0.31155,-0.02412 0.62309,-0.04825 0.94408,-0.0731c0.60436,-0.05005 0.60436,-0.05005 1.22093,-0.1011c0.40188,-0.03233 0.80376,-0.06467 1.21782,-0.09798c0.97164,-0.01932 0.97164,-0.01932 1.39513,-0.52415z" fill="#2090c8"/><path d="M130.38271,77.64172c0.78836,0 1.57672,0 2.38898,0c0,4.0732 0,8.14641 0,12.34304c-1.59265,0.39816 -1.59265,0.39816 -2.38898,0c0,-4.0732 0,-8.14641 0,-12.34304z" fill="#1194cf"/><path d="M153.87431,80.42885c0.13139,0 0.26279,0 0.39816,0c0.13139,2.1023 0.26279,4.2046 0.39816,6.3706c0.91976,0 1.83951,0 2.78714,0c0.79633,0.79633 1.59265,1.59265 2.38898,2.38898c-2.51959,0.74655 -4.53119,0.79633 -7.16693,0.79633c-0.71461,-1.51855 -0.94545,-2.70211 -0.79633,-4.37979c0.26279,-0.26279 0.52557,-0.52557 0.79633,-0.79633c0.09855,-0.88691 0.09855,-0.88691 0.19908,-1.79173c0.19908,-1.79173 0.19908,-1.79173 0.99541,-2.58806z" fill="#1193cf"/><path d="M258.59109,73.66009c2.57892,-0.10526 4.60241,0.07798 6.71899,1.64242c1.10361,1.49312 1.24426,2.48293 1.24426,4.33002c-0.52846,1.71748 -1.04566,2.28227 -2.5134,3.33461c-1.4777,0.65119 -2.28083,0.70482 -3.8572,0.64701c0.00462,0.45526 0.00924,0.91052 0.014,1.37957c0.00359,0.58768 0.00718,1.17536 0.01089,1.78085c0.00462,0.58665 0.00924,1.17331 0.014,1.77773c-0.03888,1.43245 -0.03888,1.43245 -0.43705,1.83062c-0.79616,0.01625 -1.59283,0.01694 -2.38898,0c1.19449,-0.79633 1.19449,-0.79633 1.99081,-0.79633c0,-1.97091 0,-3.94181 0,-5.97244c0.91976,-0.26279 1.83951,-0.52557 2.78714,-0.79633c0.26279,-0.52557 0.52557,-1.05115 0.79633,-1.59265c0.65697,0.13139 1.31394,0.26279 1.99081,0.39816c0,-0.52557 0,-1.05115 0,-1.59265c-0.52557,0.13139 -1.05115,0.26279 -1.59265,0.39816c-1.09495,-0.1742 -1.09495,-0.1742 -1.99081,-0.39816c0.13139,-0.52557 0.26279,-1.05115 0.39816,-1.59265c0,0.39418 0,0.78836 0,1.19449c0.26279,0 0.52557,0 0.79633,0c-0.13139,-0.78836 -0.26279,-1.57672 -0.39816,-2.38898c0.39418,0 0.78836,0 1.19449,0c0.13139,0.26279 0.26279,0.52557 0.39816,0.79633c0.39418,-0.26279 0.78836,-0.52557 1.19449,-0.79633c-0.65739,-1.75937 -0.65739,-1.75937 -2.5134,-2.26455c-1.29052,-0.36134 -2.53685,-0.70779 -3.8572,-0.92075c0,-0.13139 0,-0.26279 0,-0.39816z" fill="#298fb9"/><path d="M247.44253,73.66009c2.71555,1.35777 3.06575,4.22693 4.10605,6.96785c0.4337,1.12917 0.86741,2.25833 1.31425,3.42171c0.3136,0.90744 0.6272,1.81487 0.9503,2.74981c-0.13139,0.26279 -0.26279,0.52557 -0.39816,0.79633c-0.13139,-0.39418 -0.26279,-0.78836 -0.39816,-1.19449c-0.39418,0 -0.78836,0 -1.19449,0c-0.26279,-0.52557 -0.52557,-1.05115 -0.79633,-1.59265c-0.50505,0.01232 -0.50505,0.01232 -1.02029,0.02489c-3.8019,-0.06913 -3.8019,-0.06913 -4.95215,-1.21937c0,-0.65697 0,-1.31394 0,-1.99081c0.26279,0 0.52557,0 0.79633,0c0,0.39418 0,0.78836 0,1.19449c0.78836,0.13139 1.57672,0.26279 2.38898,0.39816c0.13139,-0.26279 0.26279,-0.52557 0.39816,-0.79633c0.26279,0.13139 0.52557,0.26279 0.79633,0.39816c0.13139,-0.65697 0.26279,-1.31394 0.39816,-1.99081c-0.39418,-0.26279 -0.78836,-0.52557 -1.19449,-0.79633c0.09033,-0.27921 0.18067,-0.55842 0.27374,-0.8461c0.16372,-1.50618 -0.35776,-2.21867 -1.07006,-3.53369c-0.27374,-1.14472 -0.27374,-1.14472 -0.39816,-1.99081z" fill="#1d91be"/><path d="M213.99687,74.05825c1.12294,-0.11665 1.12294,-0.11665 2.43875,-0.07466c0.6544,0.01617 0.6544,0.01617 1.32202,0.03266c0.33567,0.01386 0.67134,0.02772 1.01718,0.04199c0,0.26279 0,0.52557 0,0.79633c0.39418,0 0.78836,0 1.19449,0c0.26279,0.26279 0.52557,0.52557 0.79633,0.79633c0.65694,0.28154 1.32016,0.54924 1.99081,0.79633c0,0.26279 0,0.52557 0,0.79633c-0.26279,0 -0.52557,0 -0.79633,0c-0.13139,0.39418 -0.26279,0.78836 -0.39816,1.19449c-0.49273,-0.12318 -0.98545,-0.24636 -1.49311,-0.37328c-2.27018,-0.51052 -4.5505,-0.67218 -6.86831,-0.82121c0,-1.99081 0,-1.99081 0.79633,-3.1853z" fill="#1795cc"/><path d="M95.3444,80.42885c-0.85402,1.70804 -1.70315,2.42352 -3.1853,3.58346c-0.15217,-0.65942 -0.28427,-1.32372 -0.39816,-1.99081c0.13139,-0.13139 0.26279,-0.26279 0.39816,-0.39816c-3.02205,-0.13139 -6.04411,-0.26279 -9.15774,-0.39816c0,0.39418 0,0.78836 0,1.19449c-0.65697,0.39418 -1.31394,0.78836 -1.99081,1.19449c-2.05223,1.99539 -4.08145,4.01453 -6.09687,6.0471c-1.09067,1.09785 -2.18134,2.19571 -3.30506,3.32684c-1.25876,1.27262 -1.25876,1.27262 -2.54295,2.57095c-0.26279,-0.13139 -0.52557,-0.26279 -0.79633,-0.39816c12.26864,-13.97581 12.26864,-13.97581 18.25327,-15.81297c6.3986,-0.13065 6.3986,-0.13065 8.82179,1.08095z" fill="#2d86b3"/><path d="M295.62021,74.85458c0.13139,0.39418 0.26279,0.78836 0.39816,1.19449c-0.39418,0.13139 -0.78836,0.26279 -1.19449,0.39816c0.65697,0.13139 1.31394,0.26279 1.99081,0.39816c0.13139,-0.26279 0.26279,-0.52557 0.39816,-0.79633c1.19449,1.19449 1.19449,1.19449 1.31114,2.26922c-0.02079,0.58896 -0.02079,0.58896 -0.04199,1.18982c-0.01078,0.39572 -0.02156,0.79144 -0.03266,1.19915c-0.01386,0.30231 -0.02772,0.60461 -0.04199,0.91608c-0.91976,-0.13139 -1.83951,-0.26279 -2.78714,-0.39816c0.07391,-0.29564 0.14782,-0.59127 0.22397,-0.89587c0.262,-1.18589 0.262,-1.18589 -0.22397,-2.6876c-1.18254,0 -2.36509,0 -3.58346,0c0,0.26279 0,0.52557 0,0.79633c-0.52557,0 -1.05115,0 -1.59265,0c-0.31834,-1.30874 -0.43662,-1.87544 0,-3.1853c1.77648,-0.44412 3.35151,-0.42499 5.17611,-0.39816z" fill="#1095cf"/><path d="M267.35066,74.05825c3.02205,0 6.04411,0 9.15774,0c0,1.05115 0,2.1023 0,3.1853c-0.13139,0.13139 -0.26279,0.26279 -0.39816,0.39816c-0.78836,0 -1.57672,0 -2.38898,0c0,4.0732 0,8.14641 0,12.34304c-1.05115,0.13139 -2.1023,0.26279 -3.1853,0.39816c-0.39816,-0.39816 -0.39816,-0.39816 -0.43705,-2.5274c0.00462,-0.88228 0.00924,-1.76457 0.014,-2.6736c0.00359,-0.88332 0.00719,-1.76663 0.01089,-2.67671c0.00462,-0.68519 0.00924,-1.37039 0.014,-2.07635c0.13139,0 0.26279,0 0.39816,0c0,3.02205 0,6.04411 0,9.15774c0.91976,0 1.83951,0 2.78714,0c-0.02079,-1.31573 -0.02079,-1.31573 -0.04199,-2.65805c-0.01078,-1.13481 -0.02156,-2.26962 -0.03266,-3.43882c-0.01386,-1.13173 -0.02772,-2.26346 -0.04199,-3.42949c0.11665,-2.81669 0.11665,-2.81669 1.31114,-4.01118c0.39418,0 0.78836,0 1.19449,0c-0.13139,-0.26279 -0.26279,-0.52557 -0.39816,-0.79633c-2.36509,-0.13139 -4.73017,-0.26279 -7.16693,-0.39816c0.1957,1.9356 0.1957,1.9356 1.19449,2.78714c-0.65697,-0.13139 -1.31394,-0.26279 -1.99081,-0.39816c0,-1.05115 0,-2.1023 0,-3.1853z" fill="#318fb8"/><path d="M180.94937,81.62334c0.79252,0.79252 0.46788,2.31684 0.47282,3.3595c0.00565,0.54149 0.01129,1.08297 0.01711,1.64086c-0.09176,1.37024 -0.09176,1.37024 -0.88809,2.16657c0,0.39418 0,0.78836 0,1.19449c-0.78836,0 -1.57672,0 -2.38898,0c0,-2.62787 0,-5.25575 0,-7.96325c0.79633,-0.39816 0.79633,-0.39816 2.78714,-0.39816z" fill="#1294ce"/><path d="M262.17455,77.24355c0,0.13139 0,0.26279 0,0.39816c-0.65697,0 -1.31394,0 -1.99081,0c0.13139,0.65697 0.26279,1.31394 0.39816,1.99081c1.61109,0.21481 3.15082,0.39816 4.77795,0.39816c-0.13139,0.52557 -0.26279,1.05115 -0.39816,1.59265c-0.52557,0 -1.05115,0 -1.59265,0c-0.39418,0.39418 -0.78836,0.78836 -1.19449,1.19449c-0.93274,-0.10364 -1.86231,-0.23871 -2.78714,-0.39816c-0.65697,0.13139 -1.31394,0.26279 -1.99081,0.39816c0,-1.70812 0,-3.41624 0,-5.17611c1.70877,-0.28479 3.0818,-0.43855 4.77795,-0.39816z" fill="#1495cb"/><path d="M170.03878,86.76057c0.58665,0.00462 1.17331,0.00924 1.77773,0.014c0.88152,0.00539 0.88152,0.00539 1.78085,0.01089c0.45526,0.00462 0.91052,0.00924 1.37957,0.014c0,1.05115 0,2.1023 0,3.1853c-1.25253,0.01068 -2.5051,0.01844 -3.75766,0.02489c-1.04627,0.00693 -1.04627,0.00693 -2.11368,0.014c-1.69375,-0.03888 -1.69375,-0.03888 -2.09191,-0.43704c-0.01625,-0.79616 -0.01694,-1.59283 0,-2.38898c0.39418,0 0.78836,0 1.19449,0c0.39816,-0.39816 0.39816,-0.39816 1.83062,-0.43705z" fill="#1195d2"/><path d="M289.24961,74.05825c6.76876,0 6.76876,0 9.15774,1.59265c0.84766,1.69532 0.9313,2.52391 0.79633,4.37979c-0.39418,0.59127 -0.39418,0.59127 -0.79633,1.19449c-0.07777,-1.01096 -0.15553,-2.02192 -0.2333,-3.03288c-0.08351,-1.02018 -0.08351,-1.02018 -0.96119,-1.74507c-0.13139,0.13139 -0.26279,0.26279 -0.39816,0.39816c-0.79616,0.01625 -1.59283,0.01694 -2.38898,0c0.13139,-0.26279 0.26279,-0.52557 0.39816,-0.79633c0.39418,0 0.78836,0 1.19449,0c-0.13139,-0.26279 -0.26279,-0.52557 -0.39816,-0.79633c-1.97091,-0.13139 -3.94181,-0.26279 -5.97244,-0.39816c0,4.86157 0,9.72313 0,14.73202c0.91976,0 1.83951,0 2.78714,0c0,-1.83951 0,-3.67902 0,-5.57428c0.13139,0 0.26279,0 0.39816,0c0,1.97091 0,3.94181 0,5.97244c-1.18254,0 -2.36509,0 -3.58346,0c0,-5.25575 0,-10.51149 0,-15.92651z" fill="#2c8cb5"/><path d="M88.17747,87.19762c0.26279,0.13139 0.52557,0.26279 0.79633,0.39816c-6.56968,6.56968 -13.13937,13.13937 -19.90813,19.90813c0,-1.73894 0.83095,-2.32275 1.99081,-3.58346c0.42703,-0.35312 0.85406,-0.70624 1.29403,-1.07006c1.18016,-0.82961 1.18016,-0.82961 1.49311,-2.11524c0.52557,-0.26279 1.05115,-0.52557 1.59265,-0.79633c0.13139,-0.39418 0.26279,-0.78836 0.39816,-1.19449c0.39418,-0.13139 0.78836,-0.26279 1.19449,-0.39816c0.26279,-0.52557 0.52557,-1.05115 0.79633,-1.59265c0.39418,-0.13139 0.78836,-0.26279 1.19449,-0.39816c0.13139,-0.39418 0.26279,-0.78836 0.39816,-1.19449c0.39418,0 0.78836,0 1.19449,0c0,-0.26279 0,-0.52557 0,-0.79633c0.51456,-0.54672 1.04493,-1.07916 1.59265,-1.59265c-0.26279,0 -0.52557,0 -0.79633,0c0,-0.52557 0,-1.05115 0,-1.59265c0.30385,-0.04106 0.6077,-0.08212 0.92075,-0.12443c1.21265,-0.21334 1.21265,-0.21334 2.26455,-1.46822c0,0.26279 0,0.52557 0,0.79633c0.52274,-0.45606 1.04529,-0.91232 1.56777,-1.36868c0.29102,-0.25406 0.58203,-0.50812 0.88187,-0.76988c0.38584,-0.34016 0.77011,-0.68302 1.13383,-1.04673z" fill="#2c87b9"/><path d="M101.715,33.44566c4.11786,3.5296 7.89521,7.37991 11.7458,11.19832c1.60547,1.58596 3.21093,3.17193 4.86505,4.80595c1.2195,1.28828 2.439,2.57655 3.69545,3.90386c-0.42874,1.71495 -0.77817,2.10624 -2.0157,3.28484c-0.43806,0.4219 -0.43806,0.4219 -0.88498,0.85231c-0.22532,0.21146 -0.45064,0.42292 -0.68279,0.64079c-0.13139,-0.26279 -0.26279,-0.52557 -0.39816,-0.79633c0.5099,-0.67986 1.04226,-1.3433 1.59265,-1.99081c0.26279,0 0.52557,0 0.79633,0c0,-0.26279 0,-0.52557 0,-0.79633c0.26279,0 0.52557,0 0.79633,0c-0.84194,-1.63956 -1.62562,-2.25792 -3.1853,-3.1853c0,-0.39418 0,-0.78836 0,-1.19449c-0.52557,-0.26279 -1.05115,-0.52557 -1.59265,-0.79633c-0.66723,-0.69057 -0.66723,-0.69057 -1.31891,-1.49311c-0.94602,-1.12621 -1.8996,-2.10204 -3.03599,-3.03599c-0.4024,-0.34491 -0.80479,-0.68982 -1.21937,-1.04518c0,-0.26279 0,-0.52557 0,-0.79633c-0.39418,0 -0.78836,0 -1.19449,0c-0.54221,-0.78866 -1.0712,-1.58645 -1.59265,-2.38898c-0.70104,-0.68537 -1.42369,-1.34923 -2.16501,-1.99081c-1.54432,-1.3709 -2.98716,-2.69918 -4.20559,-4.37979c0,-0.26279 0,-0.52557 0,-0.79633z" fill="#29578a"/><path d="M155.92889,77.20467c0.76911,0.00693 0.76911,0.00693 1.55377,0.014c0.51377,0.00359 1.02754,0.00718 1.55688,0.01089c0.39777,0.00462 0.79555,0.00924 1.20537,0.014c0.13139,1.18254 0.26279,2.36509 0.39816,3.58346c-0.26279,-0.52557 -0.52557,-1.05115 -0.79633,-1.59265c-1.6615,-1.28173 -2.52387,-1.27064 -4.77795,-1.59265c0,2.89066 0,5.78132 0,8.75958c1.57672,-0.26279 3.15345,-0.52557 4.77795,-0.79633c0.13139,-0.65697 0.26279,-1.31394 0.39816,-1.99081c0.39816,1.59265 0.39816,1.59265 0,2.38898c-0.26279,0 -0.52557,0 -0.79633,0c0,0.26279 0,0.52557 0,0.79633c-0.13139,0.13139 -0.26279,0.26279 -0.39816,0.39816c0.78836,0.26279 1.57672,0.52557 2.38898,0.79633c0,-0.26279 0,-0.52557 0,-0.79633c0.39418,0.13139 0.78836,0.26279 1.19449,0.39816c-1.05256,1.12774 -1.7666,1.67963 -3.1853,2.38898c-0.65697,0 -1.31394,0 -1.99081,0c0.52557,-0.26279 1.05115,-0.52557 1.59265,-0.79633c0.13139,-0.13139 0.26279,-0.26279 0.39816,-0.39816c-0.49273,-0.271 -0.49273,-0.271 -0.99541,-0.54747c-0.32848,-0.21351 -0.65697,-0.42703 -0.99541,-0.64701c0,-0.26279 0,-0.52557 0,-0.79633c-0.91976,0 -1.83951,0 -2.78714,0c-0.46696,-1.86785 -0.45084,-3.52458 -0.44793,-5.44985c-0.00102,-0.68315 -0.00205,-1.36629 -0.00311,-2.07014c0.06535,-2.024 0.06535,-2.024 1.7093,-2.0748z" fill="#248fbb"/><path d="M168.9065,73.56833c1.14482,0.00847 1.14482,0.00847 2.31276,0.01711c0.76424,0.00256 1.52848,0.00513 2.31588,0.00778c1.83995,0.06688 1.83995,0.06688 2.23811,0.46504c0.01636,1.19438 0.01682,2.3891 0,3.58346c-1.70812,0 -3.41624,0 -5.17611,0c0.26279,-1.05115 0.52557,-2.1023 0.79633,-3.1853c-1.31394,0 -2.62787,0 -3.98163,0c-0.04927,0.45166 -0.09855,0.90333 -0.14931,1.36868c-0.08212,0.46809 -0.16424,0.93618 -0.24885,1.41845c-0.39418,0.19709 -0.39418,0.19709 -0.79633,0.39816c-0.03423,-1.06121 -0.03216,-2.12402 0,-3.1853c0.79633,-0.79633 0.79633,-0.79633 2.68915,-0.88809z" fill="#2592c3"/><path d="M222.40961,75.38494c0.24585,0.21916 0.4917,0.43832 0.745,0.66412c0,1.59265 0,1.59265 -0.79633,2.48852c-0.26279,0.22994 -0.52557,0.45988 -0.79633,0.69678c-0.52557,-0.26279 -1.05115,-0.52557 -1.59265,-0.79633c0.52557,-0.13139 1.05115,-0.26279 1.59265,-0.39816c0.13139,-0.26279 0.26279,-0.52557 0.39816,-0.79633c0.26279,0 0.52557,0 0.79633,0c-1.11482,-1.31968 -1.11482,-1.31968 -2.78714,-1.59265c0,-0.26279 0,-0.52557 0,-0.79633c-0.39418,0 -0.78836,0 -1.19449,0c0,-0.26279 0,-0.52557 0,-0.79633c-1.57672,0 -3.15345,0 -4.77795,0c-0.26279,1.05115 -0.52557,2.1023 -0.79633,3.1853c0.52557,0.13139 1.05115,0.26279 1.59265,0.39816c-0.31206,0.15603 -0.62412,0.31206 -0.94564,0.47282c-1.18515,0.81832 -1.43865,1.35745 -1.8415,2.71248c-0.13139,0 -0.26279,0 -0.39816,0c-0.13139,-0.91976 -0.26279,-1.83951 -0.39816,-2.78714c0.39418,0.13139 0.78836,0.26279 1.19449,0.39816c0,-0.52557 0,-1.05115 0,-1.59265c-0.52557,0.13139 -1.05115,0.26279 -1.59265,0.39816c-0.52557,0.13139 -1.05115,0.26279 -1.59265,0.39816c0.79172,-1.58343 1.10689,-1.94224 2.5134,-2.86179c0.30231,-0.20274 0.60462,-0.40547 0.91609,-0.61435c3.38906,-1.80269 6.67755,-0.60641 9.7612,1.21937z" fill="#2c90bd"/><path d="M246.24804,73.66009c0.39418,0 0.78836,0 1.19449,0c0.10676,0.27921 0.21351,0.55842 0.32351,0.8461c0.45882,1.17592 0.45882,1.17592 1.14472,2.33921c0.57515,1.31464 0.55792,1.84542 0.12443,3.1853c0.39418,0.26279 0.78836,0.52557 1.19449,0.79633c-0.13139,0.78836 -0.26279,1.57672 -0.39816,2.38898c-0.39418,0 -0.78836,0 -1.19449,0c-0.39418,-1.44533 -0.78836,-2.89066 -1.19449,-4.37979c-0.39418,0 -0.78836,0 -1.19449,0c0,-0.26279 0,-0.52557 0,-0.79633c-0.39418,0.13139 -0.78836,0.26279 -1.19449,0.39816c0,-1.8356 0.51782,-3.08627 1.19449,-4.77795z" fill="#1195ce"/><path d="M278.10105,73.66009c0.93148,0.11439 1.86098,0.24661 2.78714,0.39816c0,0.13139 0,0.26279 0,0.39816c-0.78836,0 -1.57672,0 -2.38898,0c0,4.99296 0,9.98592 0,15.13018c2.62787,0 5.25575,0 7.96325,0c-0.13139,-0.78836 -0.26279,-1.57672 -0.39816,-2.38898c-1.57672,-0.13139 -3.15345,-0.26279 -4.77795,-0.39816c0,-0.13139 0,-0.26279 0,-0.39816c0.85437,-0.01069 1.70877,-0.01845 2.56317,-0.02489c0.47579,-0.00462 0.95158,-0.00924 1.44178,-0.014c1.17116,0.03888 1.17116,0.03888 1.56932,0.43705c0,1.05115 0,2.1023 0,3.1853c-3.02205,0 -6.04411,0 -9.15774,0c-0.01067,-2.64611 -0.01844,-5.29224 -0.02489,-7.93837c-0.00462,-1.47356 -0.00924,-2.94712 -0.014,-4.46533c0.03888,-3.52281 0.03888,-3.52281 0.43705,-3.92097z" fill="#3292b9"/><path d="M122.81762,63.30786c0,1.06177 0,2.12353 0,3.1853c-0.26279,0 -0.52557,0 -0.79633,0c0,0.52557 0,1.05115 0,1.59265c-0.26279,0 -0.52557,0 -0.79633,0c0,0.26279 0,0.52557 0,0.79633c-0.52557,0.52557 -1.05115,1.05115 -1.59265,1.59265c1.97091,0.13139 3.94181,0.26279 5.97244,0.39816c0.13139,-0.65697 0.26279,-1.31394 0.39816,-1.99081c0.65697,0 1.31394,0 1.99081,0c-0.49148,1.18515 -0.49148,1.18515 -1.59265,2.38898c-2.24588,0.2333 -2.24588,0.2333 -4.87749,0.14931c-1.3088,-0.03233 -1.3088,-0.03233 -2.64405,-0.06532c-0.67134,-0.02772 -1.34268,-0.05543 -2.03436,-0.08399c0.93098,-1.86196 2.11173,-3.26984 3.43415,-4.87749c0.70983,-0.86535 0.70983,-0.86535 1.43401,-1.74818c0.36441,-0.4414 0.72882,-0.8828 1.10428,-1.33758z" fill="#1a609c"/><path d="M54.33365,25.08425c0.26279,0.13139 0.52557,0.26279 0.79633,0.39816c-2.09326,2.89439 -4.17532,5.1905 -7.16693,7.16693c-4.18485,0.61773 -8.14497,0.43208 -12.34304,0c0.80028,-1.60056 1.56815,-2.44678 2.83691,-3.683c0.36236,-0.35517 0.72472,-0.71035 1.09806,-1.07628c0.27818,-0.26895 0.55637,-0.53789 0.84299,-0.81499c0,1.19449 0,1.19449 -0.74655,1.96593c-0.27921,0.271 -0.55842,0.542 -0.8461,0.82121c-0.26279,0.52557 -0.52557,1.05115 -0.79633,1.59265c6.31395,0.80467 6.31395,0.80467 12.03353,-1.41845c1.55027,-1.58516 2.96266,-3.17821 4.29113,-4.95215z" fill="#3086b3"/><path d="M117.24335,85.60497c0.78836,0.19709 0.78836,0.19709 1.59265,0.39816c0.13139,0.39418 0.26279,0.78836 0.39816,1.19449c2.02388,0.04508 2.02388,0.04508 3.98163,-0.39816c0,-0.26279 0,-0.52557 0,-0.79633c0.65697,0.26279 1.31394,0.52557 1.99081,0.79633c0,0.39418 0,0.78836 0,1.19449c-0.39418,0 -0.78836,0 -1.19449,0c0,0.39418 0,0.78836 0,1.19449c-1.49493,0.99662 -2.20879,0.97661 -3.98163,0.79633c-1.36868,-0.74655 -1.36868,-0.74655 -2.38898,-1.59265c0,-0.26279 0,-0.52557 0,-0.79633c-0.26279,0 -0.52557,0 -0.79633,0c0.13139,-0.65697 0.26279,-1.31394 0.39816,-1.99081z" fill="#1597d3"/><path d="M147.10554,74.05825c-0.65697,0.13139 -1.31394,0.26279 -1.99081,0.39816c0.05626,1.66737 0.11475,3.33466 0.1742,5.00192c0.03233,0.92848 0.06467,1.85696 0.09798,2.81358c0.09043,1.82075 0.26483,3.52877 0.52415,5.32387c-0.13139,0.26279 -0.26279,0.52557 -0.39816,0.79633c1.67231,-0.27298 1.67231,-0.27298 2.78714,-1.59265c-0.36959,1.33054 -0.76818,1.96478 -1.79173,2.91156c-1.90488,0.91842 -3.27395,0.78548 -5.3752,0.6719c0,-0.13139 0,-0.26279 0,-0.39816c0.91976,0 1.83951,0 2.78714,0c0,-0.78836 0,-1.57672 0,-2.38898c-0.65697,0 -1.31394,0 -1.99081,0c-0.26279,-0.52557 -0.52557,-1.05115 -0.79633,-1.59265c0.45166,0.07391 0.90333,0.14782 1.36868,0.22397c0.46809,0.05748 0.93618,0.11497 1.41845,0.1742c0.98355,-0.98355 0.58793,-5.22798 0.62213,-6.39549c0.03336,-1.10504 0.06672,-2.21008 0.1011,-3.34861c0.02412,-0.85765 0.04825,-1.7153 0.0731,-2.59894c0.79633,-0.39816 0.79633,-0.39816 2.38898,0z" fill="#298fbe"/><path d="M77.42708,46.98319c0.39418,0.52557 0.78836,1.05115 1.19449,1.59265c-0.13139,0.39418 -0.26279,0.78836 -0.39816,1.19449c-0.39418,-0.52557 -0.78836,-1.05115 -1.19449,-1.59265c-1.59265,-0.26544 -1.59265,-0.26544 -3.1853,0c-2.11463,2.8195 -1.41544,6.43374 -1.46822,9.85453c-0.02618,1.50076 -0.05235,3.00153 -0.07932,4.54777c-0.01488,1.15996 -0.02977,2.31992 -0.0451,3.51503c-0.26279,-0.13139 -0.52557,-0.26279 -0.79633,-0.39816c-0.01069,-2.62952 -0.01845,-5.25906 -0.02489,-7.8886c-0.00462,-1.46432 -0.00924,-2.92864 -0.014,-4.43734c0.04535,-4.199 0.04535,-4.199 1.00941,-5.66604c1.66961,-1.18094 2.98785,-0.92562 5.00192,-0.72167z" fill="#2984b0"/><path d="M290.4441,81.22518c0.26279,0 0.52557,0 0.79633,0c0,0.78836 0,1.57672 0,2.38898c0.46809,-0.49273 0.46809,-0.49273 0.94564,-0.99541c1.04518,-0.99541 1.04518,-0.99541 1.8415,-0.99541c0,0.26279 0,0.52557 0,0.79633c0.26279,0 0.52557,0 0.79633,0c-0.13139,0.65697 -0.26279,1.31394 -0.39816,1.99081c-1.18254,-0.19709 -1.18254,-0.19709 -2.38898,-0.39816c0,1.70812 0,3.41624 0,5.17611c-0.65697,0 -1.31394,0 -1.99081,0c-0.01069,-1.25254 -0.01844,-2.5051 -0.02489,-3.75766c-0.00693,-1.04627 -0.00693,-1.04627 -0.014,-2.11368c0.03888,-1.69375 0.03888,-1.69375 0.43705,-2.09191z" fill="#0e94cf"/><path d="M160.24491,77.24355c2.28944,0.74655 2.28944,0.74655 3.1853,1.19449c0.38842,1.16524 0.46377,1.96953 0.47282,3.1853c0.00565,0.34491 0.01129,0.68982 0.01711,1.04518c-0.09176,0.94564 -0.09176,0.94564 -0.88809,2.14012c-0.65697,0.13139 -1.31394,0.26279 -1.99081,0.39816c0.13139,-1.44533 0.26279,-2.89066 0.39816,-4.37979c-0.26279,0 -0.52557,0 -0.79633,0c-0.13139,-1.18254 -0.26279,-2.36509 -0.39816,-3.58346z" fill="#1095cf"/><path d="M207.2281,56.14093c0.13139,0.26279 0.26279,0.52557 0.39816,0.79633c-0.85926,2.19628 -1.76296,4.37524 -2.6876,6.5448c-0.5071,1.19845 -1.0142,2.39691 -1.53666,3.63168c-1.35002,2.96289 -1.35002,2.96289 -2.54451,4.15738c0.39418,-1.57672 0.78836,-3.15345 1.19449,-4.77795c0.26279,0 0.52557,0 0.79633,0c-0.39418,-0.39418 -0.78836,-0.78836 -1.19449,-1.19449c-0.2504,-1.9615 -0.04969,-2.32273 1.19449,-3.98163c0.26279,0 0.52557,0 0.79633,0c0,0.39418 0,0.78836 0,1.19449c0.26279,0.13139 0.52557,0.26279 0.79633,0.39816c0.01642,-0.37776 0.03285,-0.75551 0.04977,-1.14472c0.46264,-2.18103 1.523,-3.77835 2.73737,-5.62405z" fill="#16609c"/><path d="M279.69371,79.63253c2.38898,0 4.77795,0 7.16693,0c0,1.18254 0,2.36509 0,3.58346c-1.83951,0 -3.67902,0 -5.57428,0c0,-0.13139 0,-0.26279 0,-0.39816c1.70812,0 3.41624,0 5.17611,0c0,-0.78836 0,-1.57672 0,-2.38898c-0.71374,0.03461 -1.42707,0.07769 -2.14012,0.12443c-0.59589,0.03464 -0.59589,0.03464 -1.20382,0.06999c-0.34183,0.06724 -0.68366,0.13448 -1.03584,0.20375c-0.39418,0.59127 -0.39418,0.59127 -0.79633,1.19449c-0.52557,0 -1.05115,0 -1.59265,0c0.01642,0.3367 0.03285,0.67339 0.04977,1.02029c-0.0544,1.49608 -0.39133,2.7347 -0.8461,4.15582c-0.13139,0 -0.26279,0 -0.39816,0c-0.03221,-1.03668 -0.0554,-2.07364 -0.07466,-3.11065c-0.01386,-0.57742 -0.02772,-1.15483 -0.04199,-1.74974c0.11665,-1.51022 0.11665,-1.51022 1.31114,-2.70471z" fill="#1d91c4"/><path d="M112.86356,62.51154c0.39418,0.19709 0.39418,0.19709 0.79633,0.39816c-10.58434,12.53837 -10.58434,12.53837 -16.84881,14.0119c-3.10961,-0.04583 -5.984,-0.26706 -9.03176,-0.87254c0,-0.26279 0,-0.52557 0,-0.79633c4.0732,0.13139 8.14641,0.26279 12.34304,0.39816c0.13139,-0.39418 0.26279,-0.78836 0.39816,-1.19449c0.72969,-0.64861 1.46197,-1.29456 2.207,-1.92549c1.87633,-1.6526 3.60271,-3.46245 5.35809,-5.24144c0.6631,-0.6641 1.32667,-1.32775 1.99081,-1.99081c0.26536,-0.26536 0.53071,-0.53071 0.8041,-0.8041c0.66101,-0.66101 1.32202,-1.32202 1.98304,-1.98304z" fill="#285c8d"/><path d="M153.07798,38.22361c-0.70935,1.4187 -1.26123,2.13274 -2.38898,3.1853c0.13139,-0.78836 0.26279,-1.57672 0.39816,-2.38898c-2.98219,-0.19907 -5.42476,-0.25636 -7.94614,1.48844c-1.26286,1.18489 -2.45622,2.38851 -3.60057,3.68767c0,-2.08159 1.22362,-3.36925 2.51651,-4.9226c2.60188,-1.8644 8.05266,-2.53403 11.02102,-1.04984z" fill="#1c5b91"/><path d="" fill="#ffffff"/><path d="" fill="#ffffff"/><path d="" fill="#ffffff"/><path d="" fill="#ffffff"/><path d="" fill="#ffffff"/><path d="" fill="#ffffff"/><path d="" fill="#ffffff"/><path d="" fill="#ffffff"/><path d="" fill="#ffffff"/><path d="" fill="#ffffff"/><path d="" fill="#ffffff"/><path d="" fill="#ffffff"/><path d="" fill="#ffffff"/><path d="" fill="#ffffff"/><path d="" fill="#ffffff"/><path d="" fill="#ffffff"/><path d="" fill="#ffffff"/><path d="" fill="#ffffff"/><path d="" fill="#ffffff"/><path d="" fill="#ffffff"/><path d="" fill="#ffffff"/><path d="" fill="#ffffff"/><path d="" fill="#ffffff"/><path d="" fill="#ffffff"/><path d="" fill="#ffffff"/><path d="" fill="#ffffff"/><path d="" fill="#ffffff"/><path d="" fill="#ffffff"/><path d="" fill="#ffffff"/><path d="" fill="#ffffff"/><path d="" fill="#ffffff"/><path d="" fill="#ffffff"/><path d="" fill="#ffffff"/><path d="" fill="#ffffff"/><path d="" fill="#ffffff"/><path d="" fill="#000000"/><path d="" fill="#ffffff"/><path d="" fill="#ffffff"/><path d="" fill="#ffffff"/><path d="" fill="#ffffff"/><path d="" fill="#ffffff"/><path d="" fill="#ffffff"/><path d="" fill="#ffffff"/><path d="" fill="#ffffff"/><path d="" fill="#ffffff"/><path d="" fill="#ffffff"/><path d="" fill="#ffffff"/><path d="" fill="#ffffff"/><path d="" fill="#ffffff"/><path d="" fill="#ffffff"/><path d="" fill="#ffffff"/><path d="" fill="#ffffff"/><path d="" fill="#ffffff"/><path d="" fill="#ffffff"/><path d="" fill="#ffffff"/><path d="" fill="#ffffff"/><path d="" fill="#ffffff"/><path d="" fill="#ffffff"/><path d="" fill="#ffffff"/><path d="" fill="#ffffff"/></g></svg>